<svg width="28" height="28" viewBox="0 0 28 28" fill="none" xmlns="http://www.w3.org/2000/svg">
<g clip-path="url(#clip0_72_1057)">
<path d="M24.5001 3.49959H22.1667V1.16626H19.8334V6.99959H17.5001V3.49959H10.5001V1.16626H8.16675V6.99959H5.83341V3.49959H3.50008C2.21325 3.49959 1.16675 4.54726 1.16675 5.83293V23.3329C1.16675 24.6198 2.21325 25.6663 3.50008 25.6663H24.5001C25.7869 25.6663 26.8334 24.6198 26.8334 23.3329V5.83293C26.8334 4.54726 25.7869 3.49959 24.5001 3.49959ZM9.33341 22.1663H4.66675V17.4996H9.33341V22.1663ZM9.33341 15.1663H4.66675V10.4996H9.33341V15.1663ZM16.3334 22.1663H11.6667V17.4996H16.3334V22.1663ZM16.3334 15.1663H11.6667V10.4996H16.3334V15.1663ZM23.3334 15.1663H18.6667V10.4996H23.3334V15.1663Z" fill="#3C3C3C"/>
</g>
<defs>
<clipPath id="clip0_72_1057">
<rect width="28" height="28" fill="white"/>
</clipPath>
</defs>
</svg>
