<svg width="17" height="17" viewBox="0 0 17 17" fill="none" xmlns="http://www.w3.org/2000/svg">
<g clip-path="url(#clip0_72_1065)">
<path d="M2.125 9.91699V14.167C2.125 14.9483 2.76038 15.5837 3.54167 15.5837H7.79167V9.91699H2.125Z" fill="#3C3C3C"/>
<path d="M9.2085 9.91699V15.5837H13.4585C14.2398 15.5837 14.8752 14.9483 14.8752 14.167V9.91699H9.2085Z" fill="#3C3C3C"/>
<path d="M14.1667 5.66658H11.961C12.2805 5.50083 12.5829 5.29754 12.8358 5.04537C13.6638 4.21733 13.6638 2.86937 12.8358 2.03921C12.0325 1.23808 10.635 1.23737 9.83104 2.03992C8.67221 3.19946 8.51567 5.38183 8.5015 5.62692C8.50008 5.64037 8.50717 5.65242 8.50717 5.66658H8.493C8.493 5.65312 8.50008 5.64037 8.49937 5.62621C8.48521 5.38112 8.32867 3.19875 7.16912 2.0385C6.36587 1.23737 4.96691 1.23737 4.16366 2.03921C3.33562 2.86796 3.33562 4.21592 4.16366 5.04467C4.41654 5.29683 4.71971 5.50012 5.03916 5.66587H2.83341C2.05212 5.66587 1.41675 6.30125 1.41675 7.08254V9.20754H7.79175V6.37421H9.20842V9.20754H15.5834V7.08254C15.5834 6.30196 14.948 5.66658 14.1667 5.66658ZM5.16596 4.04308C4.88971 3.76683 4.88971 3.31775 5.16596 3.04079C5.29912 2.90762 5.47691 2.83396 5.66675 2.83396C5.85658 2.83396 6.03437 2.90762 6.16825 3.04079C6.58616 3.45871 6.82983 4.20812 6.96017 4.83358C6.33612 4.70325 5.58104 4.45817 5.16596 4.04308ZM10.04 4.835C10.1703 4.20954 10.414 3.45942 10.8319 3.0415C10.9658 2.90762 11.1443 2.83396 11.3334 2.83396C11.5225 2.83396 11.701 2.90762 11.8335 3.04008C12.1097 3.31704 12.1105 3.76683 11.8335 4.04308C11.4156 4.46171 10.6655 4.70537 10.04 4.835Z" fill="#3C3C3C"/>
</g>
<defs>
<clipPath id="clip0_72_1065">
<rect width="17" height="17" fill="white"/>
</clipPath>
</defs>
</svg>
