<svg width="37" height="48" viewBox="0 0 37 48" fill="none" xmlns="http://www.w3.org/2000/svg">
<g clip-path="url(#clip0_40_2073)">
<path d="M8.89524 2.14301L16.7729 11.4437C16.7729 11.4437 14.1195 14.0187 11.3577 10.7745C8.59598 7.53026 8.89524 2.14301 8.89524 2.14301Z" fill="#790C04"/>
<path d="M8.89524 2.14301L16.7729 11.4437C16.7729 11.4437 14.1195 14.0187 11.3577 10.7745C8.59598 7.53026 8.89524 2.14301 8.89524 2.14301Z" fill="#790C04"/>
<path d="M17.0465 6.05638C19.794 9.30061 16.7615 11.4437 16.7615 11.4437L8.88379 2.14301C8.88379 2.14301 14.299 2.81214 17.0465 6.05638Z" fill="#790C04"/>
<path d="M18.2407 0V12.1412C18.2407 12.1412 14.5355 12.4235 14.5355 8.18824C14.5355 3.95294 18.2407 0 18.2407 0Z" fill="#790C04"/>
<path d="M18.2407 0V12.1412C18.2407 12.1412 14.5355 12.4235 14.5355 8.18824C14.5355 3.95294 18.2407 0 18.2407 0Z" fill="#790C04"/>
<path d="M21.9459 8.18824C21.9459 12.4235 18.2407 12.1412 18.2407 12.1412V0C18.2407 0 21.9459 3.95294 21.9459 8.18824Z" fill="#790C04"/>
<path d="M27.5976 2.14301L19.7228 11.4437C19.7228 11.4437 22.3762 14.0187 25.138 10.7745C27.8997 7.53026 27.5976 2.14301 27.5976 2.14301Z" fill="#790C04"/>
<path d="M27.5976 2.14301L19.7228 11.4437C19.7228 11.4437 22.3762 14.0187 25.138 10.7745C27.8997 7.53026 27.5976 2.14301 27.5976 2.14301Z" fill="#790C04"/>
<path d="M19.4491 6.05638C16.6988 9.30061 19.7341 11.4437 19.7341 11.4437L27.609 2.14301C27.609 2.14301 22.1966 2.81214 19.4491 6.05638Z" fill="#790C04"/>
<path d="M21.3758 10.1647C20.3379 10.3249 19.2907 10.4192 18.2407 10.4471C17.1906 10.4192 16.1435 10.3249 15.1056 10.1647C13.2131 9.88238 0 7.62356 0 21.4589C0 35.2941 13.9655 48 18.2407 47.7176C22.5158 48 36.4814 35.2941 36.4814 21.4589C36.4814 7.62356 23.2683 9.8965 21.3758 10.1647Z" fill="#790C04"/>
<path d="M21.3758 10.1647C20.3379 10.3249 19.2907 10.4192 18.2407 10.4471C17.1906 10.4192 16.1435 10.3249 15.1056 10.1647C13.2131 9.88238 0 7.62356 0 21.4589C0 35.2941 13.9655 48 18.2407 47.7176C22.5158 48 36.4814 35.2941 36.4814 21.4589C36.4814 7.62356 23.2683 9.8965 21.3758 10.1647Z" fill="#790C04"/>
<path d="M25.7735 9.88236C24.3768 9.83572 22.9788 9.91977 21.5981 10.1336L21.3758 10.1647L20.7317 10.2494C19.8766 10.3567 19.2211 10.4047 18.7993 10.4301C18.4345 10.4471 18.2293 10.4471 18.2293 10.4471C18.2293 10.4471 18.0412 10.4471 17.682 10.4301C17.2631 10.4047 16.6104 10.3567 15.7525 10.2523C15.5445 10.2269 15.325 10.1986 15.0941 10.1647L14.8718 10.1336C13.4949 9.91974 12.1008 9.8347 10.7078 9.87948C8.96642 9.95007 6.97419 10.2776 5.18433 11.198C7.20414 10.8109 9.26174 10.6518 11.3178 10.7238C12.4859 10.7544 13.6514 10.8487 14.8091 11.0061L15.4932 11.0964C15.9007 11.1472 16.2598 11.184 16.5705 11.2122L16.79 11.2292L16.5705 11.2122L16.9923 11.246C17.6108 11.2884 17.9414 11.2885 17.9414 11.2885H18.2264C18.4715 11.2885 18.8762 11.2574 19.4235 11.2066L19.9507 11.1529C20.2756 11.1162 20.6404 11.0739 21.0366 11.0174H21.0737C21.752 10.9214 23.3395 10.5656 25.0952 10.7915C28.2303 11.1924 31.9041 13.4429 31.9041 22.3116C31.9041 33.6057 22.5899 44.1572 16.8441 47.489C17.2844 47.6544 17.7528 47.734 18.2236 47.7233C22.4987 48.0057 36.4642 35.2998 36.4642 21.4645C36.4813 11.9859 30.2852 10.0659 25.7735 9.88236Z" fill="#790C04"/>
<path d="M25.7735 9.88236C24.3768 9.83572 22.9788 9.91977 21.5981 10.1336L21.3758 10.1647L20.7317 10.2494C19.8766 10.3567 19.2211 10.4047 18.7993 10.4301C18.4345 10.4471 18.2293 10.4471 18.2293 10.4471C18.2293 10.4471 18.0412 10.4471 17.682 10.4301C17.2631 10.4047 16.6104 10.3567 15.7525 10.2523C15.5445 10.2269 15.325 10.1986 15.0941 10.1647L14.8718 10.1336C13.4949 9.91974 12.1008 9.8347 10.7078 9.87948C8.96642 9.95007 6.97419 10.2776 5.18433 11.198C7.20414 10.8109 9.26174 10.6518 11.3178 10.7238C12.4859 10.7544 13.6514 10.8487 14.8091 11.0061L15.4932 11.0964C15.9007 11.1472 16.2598 11.184 16.5705 11.2122L16.79 11.2292L16.5705 11.2122L16.9923 11.246C17.6108 11.2884 17.9414 11.2885 17.9414 11.2885H18.2264C18.4715 11.2885 18.8762 11.2574 19.4235 11.2066L19.9507 11.1529C20.2756 11.1162 20.6404 11.0739 21.0366 11.0174H21.0737C21.752 10.9214 23.3395 10.5656 25.0952 10.7915C28.2303 11.1924 31.9041 13.4429 31.9041 22.3116C31.9041 33.6057 22.5899 44.1572 16.8441 47.489C17.2844 47.6544 17.7528 47.734 18.2236 47.7233C22.4987 48.0057 36.4642 35.2998 36.4642 21.4645C36.4813 11.9859 30.2852 10.0659 25.7735 9.88236Z" fill="#790C04"/>
<path d="M9.51933 33.9162C10.0545 33.9162 10.4884 33.0565 10.4884 31.9962C10.4884 30.9357 10.0545 30.0762 9.51933 30.0762C8.98414 30.0762 8.55029 30.9357 8.55029 31.9962C8.55029 33.0565 8.98414 33.9162 9.51933 33.9162Z" fill="#790C04"/>
<path d="M9.51933 33.9162C10.0545 33.9162 10.4884 33.0565 10.4884 31.9962C10.4884 30.9357 10.0545 30.0762 9.51933 30.0762C8.98414 30.0762 8.55029 30.9357 8.55029 31.9962C8.55029 33.0565 8.98414 33.9162 9.51933 33.9162Z" fill="#790C04"/>
<path d="M15.3335 33.9162C15.8687 33.9162 16.3026 33.0565 16.3026 31.9962C16.3026 30.9357 15.8687 30.0762 15.3335 30.0762C14.7983 30.0762 14.3645 30.9357 14.3645 31.9962C14.3645 33.0565 14.7983 33.9162 15.3335 33.9162Z" fill="#790C04"/>
<path d="M15.3335 33.9162C15.8687 33.9162 16.3026 33.0565 16.3026 31.9962C16.3026 30.9357 15.8687 30.0762 15.3335 30.0762C14.7983 30.0762 14.3645 30.9357 14.3645 31.9962C14.3645 33.0565 14.7983 33.9162 15.3335 33.9162Z" fill="#790C04"/>
<path d="M21.1477 33.9162C21.6829 33.9162 22.1168 33.0565 22.1168 31.9962C22.1168 30.9357 21.6829 30.0762 21.1477 30.0762C20.6126 30.0762 20.1787 30.9357 20.1787 31.9962C20.1787 33.0565 20.6126 33.9162 21.1477 33.9162Z" fill="#790C04"/>
<path d="M21.1477 33.9162C21.6829 33.9162 22.1168 33.0565 22.1168 31.9962C22.1168 30.9357 21.6829 30.0762 21.1477 30.0762C20.6126 30.0762 20.1787 30.9357 20.1787 31.9962C20.1787 33.0565 20.6126 33.9162 21.1477 33.9162Z" fill="#790C04"/>
<path d="M26.962 33.9162C27.4971 33.9162 27.931 33.0565 27.931 31.9962C27.931 30.9357 27.4971 30.0762 26.962 30.0762C26.4268 30.0762 25.9929 30.9357 25.9929 31.9962C25.9929 33.0565 26.4268 33.9162 26.962 33.9162Z" fill="#790C04"/>
<path d="M26.962 33.9162C27.4971 33.9162 27.931 33.0565 27.931 31.9962C27.931 30.9357 27.4971 30.0762 26.962 30.0762C26.4268 30.0762 25.9929 30.9357 25.9929 31.9962C25.9929 33.0565 26.4268 33.9162 26.962 33.9162Z" fill="#790C04"/>
<path d="M9.51933 17.822C10.0545 17.822 10.4884 16.9625 10.4884 15.902C10.4884 14.8417 10.0545 13.982 9.51933 13.982C8.98414 13.982 8.55029 14.8417 8.55029 15.902C8.55029 16.9625 8.98414 17.822 9.51933 17.822Z" fill="#790C04"/>
<path d="M9.51933 17.822C10.0545 17.822 10.4884 16.9625 10.4884 15.902C10.4884 14.8417 10.0545 13.982 9.51933 13.982C8.98414 13.982 8.55029 14.8417 8.55029 15.902C8.55029 16.9625 8.98414 17.822 9.51933 17.822Z" fill="#790C04"/>
<path d="M15.3335 17.822C15.8687 17.822 16.3026 16.9625 16.3026 15.902C16.3026 14.8417 15.8687 13.982 15.3335 13.982C14.7983 13.982 14.3645 14.8417 14.3645 15.902C14.3645 16.9625 14.7983 17.822 15.3335 17.822Z" fill="#790C04"/>
<path d="M15.3335 17.822C15.8687 17.822 16.3026 16.9625 16.3026 15.902C16.3026 14.8417 15.8687 13.982 15.3335 13.982C14.7983 13.982 14.3645 14.8417 14.3645 15.902C14.3645 16.9625 14.7983 17.822 15.3335 17.822Z" fill="#790C04"/>
<path d="M21.1477 17.822C21.6829 17.822 22.1168 16.9625 22.1168 15.902C22.1168 14.8417 21.6829 13.982 21.1477 13.982C20.6126 13.982 20.1787 14.8417 20.1787 15.902C20.1787 16.9625 20.6126 17.822 21.1477 17.822Z" fill="#790C04"/>
<path d="M21.1477 17.822C21.6829 17.822 22.1168 16.9625 22.1168 15.902C22.1168 14.8417 21.6829 13.982 21.1477 13.982C20.6126 13.982 20.1787 14.8417 20.1787 15.902C20.1787 16.9625 20.6126 17.822 21.1477 17.822Z" fill="#790C04"/>
<path d="M26.962 17.822C27.4971 17.822 27.931 16.9625 27.931 15.902C27.931 14.8417 27.4971 13.982 26.962 13.982C26.4268 13.982 25.9929 14.8417 25.9929 15.902C25.9929 16.9625 26.4268 17.822 26.962 17.822Z" fill="#790C04"/>
<path d="M26.962 17.822C27.4971 17.822 27.931 16.9625 27.931 15.902C27.931 14.8417 27.4971 13.982 26.962 13.982C26.4268 13.982 25.9929 14.8417 25.9929 15.902C25.9929 16.9625 26.4268 17.822 26.962 17.822Z" fill="#790C04"/>
<path d="M6.66923 25.7279C7.20442 25.7279 7.63827 24.8683 7.63827 23.8079C7.63827 22.7476 7.20442 21.8878 6.66923 21.8878C6.13404 21.8878 5.7002 22.7476 5.7002 23.8079C5.7002 24.8683 6.13404 25.7279 6.66923 25.7279Z" fill="#790C04"/>
<path d="M6.66923 25.7279C7.20442 25.7279 7.63827 24.8683 7.63827 23.8079C7.63827 22.7476 7.20442 21.8878 6.66923 21.8878C6.13404 21.8878 5.7002 22.7476 5.7002 23.8079C5.7002 24.8683 6.13404 25.7279 6.66923 25.7279Z" fill="#790C04"/>
<path d="M12.4834 25.7279C13.0186 25.7279 13.4525 24.8683 13.4525 23.8079C13.4525 22.7476 13.0186 21.8878 12.4834 21.8878C11.9482 21.8878 11.5144 22.7476 11.5144 23.8079C11.5144 24.8683 11.9482 25.7279 12.4834 25.7279Z" fill="#790C04"/>
<path d="M12.4834 25.7279C13.0186 25.7279 13.4525 24.8683 13.4525 23.8079C13.4525 22.7476 13.0186 21.8878 12.4834 21.8878C11.9482 21.8878 11.5144 22.7476 11.5144 23.8079C11.5144 24.8683 11.9482 25.7279 12.4834 25.7279Z" fill="#790C04"/>
<path d="M18.2976 25.7279C18.8328 25.7279 19.2667 24.8683 19.2667 23.8079C19.2667 22.7476 18.8328 21.8878 18.2976 21.8878C17.7625 21.8878 17.3286 22.7476 17.3286 23.8079C17.3286 24.8683 17.7625 25.7279 18.2976 25.7279Z" fill="#790C04"/>
<path d="M18.2976 25.7279C18.8328 25.7279 19.2667 24.8683 19.2667 23.8079C19.2667 22.7476 18.8328 21.8878 18.2976 21.8878C17.7625 21.8878 17.3286 22.7476 17.3286 23.8079C17.3286 24.8683 17.7625 25.7279 18.2976 25.7279Z" fill="#790C04"/>
<path d="M24.1119 25.7279C24.6471 25.7279 25.0809 24.8683 25.0809 23.8079C25.0809 22.7476 24.6471 21.8878 24.1119 21.8878C23.5767 21.8878 23.1428 22.7476 23.1428 23.8079C23.1428 24.8683 23.5767 25.7279 24.1119 25.7279Z" fill="#790C04"/>
<path d="M24.1119 25.7279C24.6471 25.7279 25.0809 24.8683 25.0809 23.8079C25.0809 22.7476 24.6471 21.8878 24.1119 21.8878C23.5767 21.8878 23.1428 22.7476 23.1428 23.8079C23.1428 24.8683 23.5767 25.7279 24.1119 25.7279Z" fill="#790C04"/>
<path d="M29.9831 25.7279C30.5183 25.7279 30.9521 24.8683 30.9521 23.8079C30.9521 22.7476 30.5183 21.8878 29.9831 21.8878C29.4478 21.8878 29.014 22.7476 29.014 23.8079C29.014 24.8683 29.4478 25.7279 29.9831 25.7279Z" fill="#790C04"/>
<path d="M29.9831 25.7279C30.5183 25.7279 30.9521 24.8683 30.9521 23.8079C30.9521 22.7476 30.5183 21.8878 29.9831 21.8878C29.4478 21.8878 29.014 22.7476 29.014 23.8079C29.014 24.8683 29.4478 25.7279 29.9831 25.7279Z" fill="#790C04"/>
<path d="M15.5046 41.2574C16.0398 41.2574 16.4736 40.3977 16.4736 39.3374C16.4736 38.2769 16.0398 37.4174 15.5046 37.4174C14.9694 37.4174 14.5355 38.2769 14.5355 39.3374C14.5355 40.3977 14.9694 41.2574 15.5046 41.2574Z" fill="#790C04"/>
<path d="M15.5046 41.2574C16.0398 41.2574 16.4736 40.3977 16.4736 39.3374C16.4736 38.2769 16.0398 37.4174 15.5046 37.4174C14.9694 37.4174 14.5355 38.2769 14.5355 39.3374C14.5355 40.3977 14.9694 41.2574 15.5046 41.2574Z" fill="#790C04"/>
<path d="M21.3188 41.2574C21.854 41.2574 22.2878 40.3977 22.2878 39.3374C22.2878 38.2769 21.854 37.4174 21.3188 37.4174C20.7836 37.4174 20.3497 38.2769 20.3497 39.3374C20.3497 40.3977 20.7836 41.2574 21.3188 41.2574Z" fill="#790C04"/>
<path d="M21.3188 41.2574C21.854 41.2574 22.2878 40.3977 22.2878 39.3374C22.2878 38.2769 21.854 37.4174 21.3188 37.4174C20.7836 37.4174 20.3497 38.2769 20.3497 39.3374C20.3497 40.3977 20.7836 41.2574 21.3188 41.2574Z" fill="#790C04"/>
<path d="M8.89524 2.14301L16.7729 11.4437C16.7729 11.4437 14.1195 14.0187 11.3577 10.7745C8.59598 7.53026 8.89524 2.14301 8.89524 2.14301Z" fill="#81B24A"/>
<path d="M17.0465 6.05638C19.794 9.30061 16.7615 11.4437 16.7615 11.4437L8.88379 2.14301C8.88379 2.14301 14.299 2.81214 17.0465 6.05638Z" fill="#709640"/>
<path d="M18.2407 0V12.1412C18.2407 12.1412 14.5355 12.4235 14.5355 8.18824C14.5355 3.95294 18.2407 0 18.2407 0Z" fill="#81B24A"/>
<path d="M21.9459 8.18824C21.9459 12.4235 18.2407 12.1412 18.2407 12.1412V0C18.2407 0 21.9459 3.95294 21.9459 8.18824Z" fill="#709640"/>
<path d="M27.5976 2.14301L19.7228 11.4437C19.7228 11.4437 22.3762 14.0187 25.138 10.7745C27.8997 7.53026 27.5976 2.14301 27.5976 2.14301Z" fill="#81B24A"/>
<path d="M19.4491 6.05638C16.6988 9.30061 19.7341 11.4437 19.7341 11.4437L27.609 2.14301C27.609 2.14301 22.1966 2.81214 19.4491 6.05638Z" fill="#709640"/>
<path d="M21.3758 10.1647C20.3379 10.3249 19.2907 10.4192 18.2407 10.4471C17.1906 10.4192 16.1435 10.3249 15.1056 10.1647C13.2131 9.88238 0 7.62356 0 21.4589C0 35.2941 13.9655 48 18.2407 47.7176C22.5158 48 36.4814 35.2941 36.4814 21.4589C36.4814 7.62356 23.2683 9.8965 21.3758 10.1647Z" fill="#F03A17"/>
<path d="M25.7735 9.88236C24.3768 9.83572 22.9788 9.91977 21.5981 10.1336L21.3758 10.1647L20.7317 10.2494C19.8766 10.3567 19.2211 10.4047 18.7993 10.4301C18.4345 10.4471 18.2293 10.4471 18.2293 10.4471C18.2293 10.4471 18.0412 10.4471 17.682 10.4301C17.2631 10.4047 16.6104 10.3567 15.7525 10.2523C15.5445 10.2269 15.325 10.1986 15.0941 10.1647L14.8718 10.1336C13.4949 9.91974 12.1008 9.8347 10.7078 9.87948C8.96642 9.95007 6.97419 10.2776 5.18433 11.198C7.20414 10.8109 9.26174 10.6518 11.3178 10.7238C12.4859 10.7544 13.6514 10.8487 14.8091 11.0061L15.4932 11.0964C15.9007 11.1472 16.2598 11.184 16.5705 11.2122L16.79 11.2292L16.5705 11.2122L16.9923 11.246C17.6108 11.2884 17.9414 11.2885 17.9414 11.2885H18.2264C18.4715 11.2885 18.8762 11.2574 19.4235 11.2066L19.9507 11.1529C20.2756 11.1162 20.6404 11.0739 21.0366 11.0174H21.0737C21.752 10.9214 23.3395 10.5656 25.0952 10.7915C28.2303 11.1924 31.9041 13.4429 31.9041 22.3116C31.9041 33.6057 22.5899 44.1572 16.8441 47.489C17.2844 47.6544 17.7528 47.734 18.2236 47.7233C22.4987 48.0057 36.4642 35.2998 36.4642 21.4645C36.4813 11.9859 30.2852 10.0659 25.7735 9.88236Z" fill="#D62F18"/>
<path d="M9.51933 33.9162C10.0545 33.9162 10.4884 33.0565 10.4884 31.9962C10.4884 30.9357 10.0545 30.0762 9.51933 30.0762C8.98414 30.0762 8.55029 30.9357 8.55029 31.9962C8.55029 33.0565 8.98414 33.9162 9.51933 33.9162Z" fill="#790C04"/>
<path d="M15.3335 33.9162C15.8687 33.9162 16.3026 33.0565 16.3026 31.9962C16.3026 30.9357 15.8687 30.0762 15.3335 30.0762C14.7983 30.0762 14.3645 30.9357 14.3645 31.9962C14.3645 33.0565 14.7983 33.9162 15.3335 33.9162Z" fill="#790C04"/>
<path d="M21.1477 33.9162C21.6829 33.9162 22.1168 33.0565 22.1168 31.9962C22.1168 30.9357 21.6829 30.0762 21.1477 30.0762C20.6126 30.0762 20.1787 30.9357 20.1787 31.9962C20.1787 33.0565 20.6126 33.9162 21.1477 33.9162Z" fill="#790C04"/>
<path d="M26.962 33.9162C27.4971 33.9162 27.931 33.0565 27.931 31.9962C27.931 30.9357 27.4971 30.0762 26.962 30.0762C26.4268 30.0762 25.9929 30.9357 25.9929 31.9962C25.9929 33.0565 26.4268 33.9162 26.962 33.9162Z" fill="#790C04"/>
<path d="M9.51933 17.822C10.0545 17.822 10.4884 16.9625 10.4884 15.902C10.4884 14.8417 10.0545 13.982 9.51933 13.982C8.98414 13.982 8.55029 14.8417 8.55029 15.902C8.55029 16.9625 8.98414 17.822 9.51933 17.822Z" fill="#790C04"/>
<path d="M15.3335 17.822C15.8687 17.822 16.3026 16.9625 16.3026 15.902C16.3026 14.8417 15.8687 13.982 15.3335 13.982C14.7983 13.982 14.3645 14.8417 14.3645 15.902C14.3645 16.9625 14.7983 17.822 15.3335 17.822Z" fill="#790C04"/>
<path d="M21.1477 17.822C21.6829 17.822 22.1168 16.9625 22.1168 15.902C22.1168 14.8417 21.6829 13.982 21.1477 13.982C20.6126 13.982 20.1787 14.8417 20.1787 15.902C20.1787 16.9625 20.6126 17.822 21.1477 17.822Z" fill="#790C04"/>
<path d="M26.962 17.822C27.4971 17.822 27.931 16.9625 27.931 15.902C27.931 14.8417 27.4971 13.982 26.962 13.982C26.4268 13.982 25.9929 14.8417 25.9929 15.902C25.9929 16.9625 26.4268 17.822 26.962 17.822Z" fill="#790C04"/>
<path d="M6.66923 25.7279C7.20442 25.7279 7.63827 24.8683 7.63827 23.8079C7.63827 22.7476 7.20442 21.8878 6.66923 21.8878C6.13404 21.8878 5.7002 22.7476 5.7002 23.8079C5.7002 24.8683 6.13404 25.7279 6.66923 25.7279Z" fill="#790C04"/>
<path d="M12.4834 25.7279C13.0186 25.7279 13.4525 24.8683 13.4525 23.8079C13.4525 22.7476 13.0186 21.8878 12.4834 21.8878C11.9482 21.8878 11.5144 22.7476 11.5144 23.8079C11.5144 24.8683 11.9482 25.7279 12.4834 25.7279Z" fill="#790C04"/>
<path d="M18.2976 25.7279C18.8328 25.7279 19.2667 24.8683 19.2667 23.8079C19.2667 22.7476 18.8328 21.8878 18.2976 21.8878C17.7625 21.8878 17.3286 22.7476 17.3286 23.8079C17.3286 24.8683 17.7625 25.7279 18.2976 25.7279Z" fill="#790C04"/>
<path d="M24.1119 25.7279C24.6471 25.7279 25.0809 24.8683 25.0809 23.8079C25.0809 22.7476 24.6471 21.8878 24.1119 21.8878C23.5767 21.8878 23.1428 22.7476 23.1428 23.8079C23.1428 24.8683 23.5767 25.7279 24.1119 25.7279Z" fill="#790C04"/>
<path d="M29.9831 25.7279C30.5183 25.7279 30.9521 24.8683 30.9521 23.8079C30.9521 22.7476 30.5183 21.8878 29.9831 21.8878C29.4478 21.8878 29.014 22.7476 29.014 23.8079C29.014 24.8683 29.4478 25.7279 29.9831 25.7279Z" fill="#790C04"/>
<path d="M15.5046 41.2574C16.0398 41.2574 16.4736 40.3977 16.4736 39.3374C16.4736 38.2769 16.0398 37.4174 15.5046 37.4174C14.9694 37.4174 14.5355 38.2769 14.5355 39.3374C14.5355 40.3977 14.9694 41.2574 15.5046 41.2574Z" fill="#790C04"/>
<path d="M21.3188 41.2574C21.854 41.2574 22.2878 40.3977 22.2878 39.3374C22.2878 38.2769 21.854 37.4174 21.3188 37.4174C20.7836 37.4174 20.3497 38.2769 20.3497 39.3374C20.3497 40.3977 20.7836 41.2574 21.3188 41.2574Z" fill="#790C04"/>
</g>
<defs>
<clipPath id="clip0_40_2073">
<rect width="36.4814" height="48" fill="white"/>
</clipPath>
</defs>
</svg>
