<svg width="500" height="360" viewBox="0 0 500 360" fill="none" xmlns="http://www.w3.org/2000/svg">
<g clip-path="url(#clip0_40_1968)">
<path d="M114.284 107.838C115.342 108.497 116.381 109.168 117.418 109.861C128.377 137.452 134.634 166.687 135.929 196.349C136.089 199.779 136.17 203.204 136.172 206.624C136.267 232.269 132.537 257.784 125.107 282.327C124.715 283.619 124.315 284.906 123.906 286.187C123.613 287.107 123.314 288.035 122.99 288.948C122.646 289.416 122.307 289.875 121.968 290.334C121.944 290.354 121.923 290.388 121.899 290.409C121.762 290.594 121.626 290.78 121.503 290.961C120.917 291.749 120.322 292.531 119.736 293.318L120.23 293.352L121.467 293.43L121.462 293.439C121.046 293.43 120.623 293.416 120.204 293.394C120.051 293.395 119.886 293.398 119.73 293.385C119.592 293.382 119.445 293.374 119.306 293.371C101.466 292.888 83.2092 291.997 66.9751 284.696C49.9831 277.048 35.5694 260.514 36.3019 241.89C36.405 239.451 36.7748 237.03 37.4048 234.672C37.6677 233.687 37.9785 232.719 38.3114 231.753C40.3377 225.841 43.9011 220.574 48.6353 216.496C53.3694 212.418 59.1035 209.676 65.248 208.55C71.3925 207.425 77.7256 207.958 83.5963 210.093C89.4669 212.229 94.6632 215.891 98.651 220.702C93.7813 201.551 72.8758 191.779 54.0468 185.837C35.2039 179.899 14.004 173.688 4.3773 156.433C-0.997443 146.83 -1.12686 135.643 2.38024 125.312C2.48701 125.003 2.59914 124.686 2.7197 124.374C7.13669 112.218 15.9745 102.178 27.4671 96.2599C49.0002 85.5913 75.1655 89.3556 97.2289 98.8777C103.132 101.429 108.833 104.424 114.284 107.838Z" fill="#F2F2F2"/>
<path d="M52.566 231.832C69.4911 233.389 85.4665 240.355 98.1306 251.698C108.916 261.467 116.875 273.962 121.171 287.871C121.421 288.666 121.649 289.46 121.863 290.258C122.29 289.443 122.706 288.611 123.116 287.785C123.381 287.257 123.65 286.721 123.906 286.187C123.613 287.107 123.314 288.036 122.991 288.948C122.646 289.416 122.307 289.875 121.968 290.334C121.944 290.354 121.924 290.388 121.899 290.409C121.763 290.594 121.626 290.78 121.503 290.961C120.917 291.749 120.322 292.531 119.736 293.318L120.23 293.352L121.467 293.43L121.462 293.439C121.047 293.43 120.623 293.416 120.204 293.394C120.052 293.395 119.886 293.398 119.731 293.385C119.679 293.143 119.615 292.905 119.55 292.666C115.165 274.703 104.431 258.934 89.3316 248.274C74.2322 237.614 55.7874 232.782 37.405 234.672C37.668 233.687 37.9787 232.719 38.3116 231.753C43.0564 231.365 47.8259 231.391 52.566 231.832Z" fill="white"/>
<path d="M108.801 160.996C115.592 166.088 121.603 172.145 126.644 178.975C129.271 182.616 131.553 186.495 133.461 190.559C134.365 192.445 135.188 194.387 135.93 196.349C136.089 199.779 136.17 203.204 136.173 206.624C135.543 204.039 134.776 201.489 133.875 198.986C133.406 197.611 132.885 196.264 132.332 194.932C126.126 180.015 114.882 168.237 101.622 159.282C87.4119 149.701 71.3923 142.508 55.1573 137.16C38.5192 131.653 21.2693 128.208 3.79337 126.901C3.39871 126.869 3.03156 126.686 2.7684 126.39C2.50525 126.094 2.36636 125.708 2.38064 125.312C2.36722 124.967 2.48903 124.63 2.72011 124.374C2.84287 124.253 2.99212 124.163 3.15588 124.111C3.31964 124.059 3.49335 124.046 3.66303 124.073C5.81962 124.235 7.97062 124.405 10.1215 124.634C28.0181 126.478 45.6158 130.543 62.5097 136.735C78.8182 142.689 94.9584 150.412 108.801 160.996Z" fill="white"/>
<path d="M20.1256 78.496C23.4292 78.496 26.1074 75.816 26.1074 72.5101C26.1074 69.2042 23.4292 66.5242 20.1256 66.5242C16.8219 66.5242 14.1438 69.2042 14.1438 72.5101C14.1438 75.816 16.8219 78.496 20.1256 78.496Z" fill="#F2F2F2"/>
<path d="M387.609 127.77H116.071V359.21H387.609V127.77Z" fill="white"/>
<path d="M388.398 360H115.282V126.98H388.398V360ZM116.861 358.42H386.819V128.56H116.861V358.42Z" fill="#3F3D56"/>
<path d="M285.782 172.794H217.898V359.21H285.782V172.794Z" fill="#FF6D63"/>
<path d="M285.782 172.794H217.898V359.21H285.782V172.794Z" fill="#FF6D63"/>
<path opacity="0.2" d="M116.861 144.753V182.303L387.609 199.651L386.811 153.317L116.861 144.753Z" fill="black"/>
<path d="M403.396 106.443H100.284V172.794H403.396V106.443Z" fill="white"/>
<path d="M404.185 173.584H99.4949V105.653H404.185V173.584ZM101.074 172.004H402.606V107.233H101.074V172.004Z" fill="#3F3D56"/>
<path d="M285.782 100.124H217.898V172.004H285.782V100.124Z" fill="#FF6D63"/>
<path d="M244.572 37.4502C262.491 64.0316 245.608 106.784 245.608 106.784C245.608 106.784 199.671 106.439 181.752 79.8579C163.832 53.2766 180.716 10.5243 180.716 10.5243C180.716 10.5243 226.652 10.8689 244.572 37.4502Z" fill="#FF6D63"/>
<path d="M252.793 37.4502C234.874 64.0316 251.757 106.784 251.757 106.784C251.757 106.784 297.694 106.439 315.614 79.8579C333.533 53.2766 316.649 10.5243 316.649 10.5243C316.649 10.5243 270.713 10.8689 252.793 37.4502Z" fill="#FF6D63"/>
<path d="M204.479 57.4693C208.402 57.4693 211.583 54.2864 211.583 50.3602C211.583 46.4339 208.402 43.2511 204.479 43.2511C200.555 43.2511 197.375 46.4339 197.375 50.3602C197.375 54.2864 200.555 57.4693 204.479 57.4693Z" fill="#3F3D56"/>
<path d="M247.104 129.35C251.027 129.35 254.208 126.167 254.208 122.241C254.208 118.315 251.027 115.132 247.104 115.132C243.18 115.132 240 118.315 240 122.241C240 126.167 243.18 129.35 247.104 129.35Z" fill="#3F3D56"/>
<path d="M247.104 284.96C251.027 284.96 254.208 281.777 254.208 277.851C254.208 273.924 251.027 270.741 247.104 270.741C243.18 270.741 240 273.924 240 277.851C240 281.777 243.18 284.96 247.104 284.96Z" fill="#3F3D56"/>
<path d="M223.423 81.1662C226.039 81.1662 228.159 79.0443 228.159 76.4268C228.159 73.8093 226.039 71.6874 223.423 71.6874C220.808 71.6874 218.687 73.8093 218.687 76.4268C218.687 79.0443 220.808 81.1662 223.423 81.1662Z" fill="#3F3D56"/>
<path d="M294.465 40.8814C297.081 40.8814 299.201 38.7595 299.201 36.142C299.201 33.5245 297.081 31.4026 294.465 31.4026C291.849 31.4026 289.729 33.5245 289.729 36.142C289.729 38.7595 291.849 40.8814 294.465 40.8814Z" fill="#3F3D56"/>
<path d="M263.68 152.257C266.296 152.257 268.417 150.135 268.417 147.517C268.417 144.9 266.296 142.778 263.68 142.778C261.065 142.778 258.944 144.9 258.944 147.517C258.944 150.135 261.065 152.257 263.68 152.257Z" fill="#3F3D56"/>
<path d="M235.264 213.869C237.879 213.869 240 211.747 240 209.13C240 206.512 237.879 204.39 235.264 204.39C232.648 204.39 230.528 206.512 230.528 209.13C230.528 211.747 232.648 213.869 235.264 213.869Z" fill="#3F3D56"/>
<path d="M259.734 235.196C262.349 235.196 264.47 233.074 264.47 230.457C264.47 227.839 262.349 225.717 259.734 225.717C257.118 225.717 254.998 227.839 254.998 230.457C254.998 233.074 257.118 235.196 259.734 235.196Z" fill="#3F3D56"/>
<path d="M254.208 324.455C256.824 324.455 258.944 322.333 258.944 319.715C258.944 317.098 256.824 314.976 254.208 314.976C251.592 314.976 249.472 317.098 249.472 319.715C249.472 322.333 251.592 324.455 254.208 324.455Z" fill="#3F3D56"/>
<path d="M491.18 236.435H346.699V359.58H491.18V236.435Z" fill="white"/>
<path d="M491.6 360H346.28V236.014H491.6V360ZM347.12 359.159H490.76V236.855H347.12V359.159Z" fill="#3F3D56"/>
<path d="M437 260.391H400.88V359.58H437V260.391Z" fill="#FF6D63"/>
<path d="M437 260.391H400.88V359.58H437V260.391Z" fill="#FF6D63"/>
<path opacity="0.2" d="M347.119 245.471V265.451L491.18 274.681L490.756 250.028L347.119 245.471Z" fill="black"/>
<path d="M499.58 225.087H338.3V260.391H499.58V225.087Z" fill="white"/>
<path d="M500 260.811H337.88V224.666H500V260.811ZM338.72 259.971H499.16V225.507H338.72V259.971Z" fill="#3F3D56"/>
<path d="M437 221.724H400.88V259.971H437V221.724Z" fill="#FF6D63"/>
<path d="M415.072 188.377C424.607 202.52 415.624 225.268 415.624 225.268C415.624 225.268 391.181 225.085 381.647 210.941C372.112 196.798 381.096 174.05 381.096 174.05C381.096 174.05 405.538 174.233 415.072 188.377Z" fill="#FF6D63"/>
<path d="M419.447 188.377C409.913 202.52 418.896 225.268 418.896 225.268C418.896 225.268 443.338 225.085 452.873 210.941C462.407 196.798 453.424 174.05 453.424 174.05C453.424 174.05 428.982 174.233 419.447 188.377Z" fill="#FF6D63"/>
<path d="M393.74 199.029C395.827 199.029 397.52 197.335 397.52 195.246C397.52 193.157 395.827 191.463 393.74 191.463C391.652 191.463 389.96 193.157 389.96 195.246C389.96 197.335 391.652 199.029 393.74 199.029Z" fill="#3F3D56"/>
<path d="M416.42 237.275C418.507 237.275 420.2 235.581 420.2 233.492C420.2 231.403 418.507 229.71 416.42 229.71C414.332 229.71 412.64 231.403 412.64 233.492C412.64 235.581 414.332 237.275 416.42 237.275Z" fill="#3F3D56"/>
<path d="M416.42 320.072C418.507 320.072 420.2 318.379 420.2 316.29C420.2 314.201 418.507 312.507 416.42 312.507C414.332 312.507 412.64 314.201 412.64 316.29C412.64 318.379 414.332 320.072 416.42 320.072Z" fill="#3F3D56"/>
<path d="M403.82 211.637C405.212 211.637 406.34 210.508 406.34 209.116C406.34 207.723 405.212 206.594 403.82 206.594C402.428 206.594 401.3 207.723 401.3 209.116C401.3 210.508 402.428 211.637 403.82 211.637Z" fill="#3F3D56"/>
<path d="M441.62 190.202C443.012 190.202 444.14 189.073 444.14 187.681C444.14 186.288 443.012 185.159 441.62 185.159C440.228 185.159 439.1 186.288 439.1 187.681C439.1 189.073 440.228 190.202 441.62 190.202Z" fill="#3F3D56"/>
<path d="M425.24 249.463C426.631 249.463 427.76 248.334 427.76 246.942C427.76 245.549 426.631 244.42 425.24 244.42C423.848 244.42 422.72 245.549 422.72 246.942C422.72 248.334 423.848 249.463 425.24 249.463Z" fill="#3F3D56"/>
<path d="M410.12 282.246C411.511 282.246 412.64 281.117 412.64 279.724C412.64 278.332 411.511 277.203 410.12 277.203C408.728 277.203 407.6 278.332 407.6 279.724C407.6 281.117 408.728 282.246 410.12 282.246Z" fill="#3F3D56"/>
<path d="M423.14 293.594C424.531 293.594 425.66 292.465 425.66 291.072C425.66 289.68 424.531 288.551 423.14 288.551C421.748 288.551 420.62 289.68 420.62 291.072C420.62 292.465 421.748 293.594 423.14 293.594Z" fill="#3F3D56"/>
<path d="M420.2 341.087C421.591 341.087 422.72 339.958 422.72 338.565C422.72 337.172 421.591 336.043 420.2 336.043C418.808 336.043 417.68 337.172 417.68 338.565C417.68 339.958 418.808 341.087 420.2 341.087Z" fill="#3F3D56"/>
<path d="M242.577 302.844C243.84 300.18 237.987 294.756 229.505 290.731C221.024 286.705 213.124 285.602 211.861 288.266C210.598 290.931 216.45 296.354 224.932 300.38C233.414 304.405 241.314 305.509 242.577 302.844Z" fill="#2F2E41"/>
<path d="M312.579 330.289C314.838 328.396 311.785 321.022 305.758 313.819C299.732 306.616 293.015 302.312 290.755 304.205C288.495 306.099 291.549 313.472 297.575 320.675C303.602 327.878 310.319 332.182 312.579 330.289Z" fill="#2F2E41"/>
<path d="M265.509 345.359C284.284 345.359 299.504 330.128 299.504 311.34C299.504 292.552 284.284 277.322 265.509 277.322C246.734 277.322 231.513 292.552 231.513 311.34C231.513 330.128 246.734 345.359 265.509 345.359Z" fill="#2F2E41"/>
<path d="M279.898 338.039H269.57V356.555H279.898V338.039Z" fill="#2F2E41"/>
<path d="M259.242 338.039H248.915V356.555H259.242V338.039Z" fill="#2F2E41"/>
<path d="M271.291 360C276.044 360 279.898 358.554 279.898 356.77C279.898 354.987 276.044 353.541 271.291 353.541C266.538 353.541 262.685 354.987 262.685 356.77C262.685 358.554 266.538 360 271.291 360Z" fill="#2F2E41"/>
<path d="M250.636 359.569C255.389 359.569 259.242 358.123 259.242 356.34C259.242 354.556 255.389 353.11 250.636 353.11C245.883 353.11 242.03 354.556 242.03 356.34C242.03 358.123 245.883 359.569 250.636 359.569Z" fill="#2F2E41"/>
<path d="M254.835 268.578C257.87 256.345 271.269 249.146 284.763 252.498C298.256 255.851 306.734 268.486 303.698 280.719C300.663 292.952 290.592 292.992 277.098 289.639C263.605 286.286 251.799 280.811 254.835 268.578Z" fill="#E6E6E6"/>
<path d="M260.426 315.504C266.686 315.504 271.76 310.426 271.76 304.162C271.76 297.898 266.686 292.82 260.426 292.82C254.167 292.82 249.092 297.898 249.092 304.162C249.092 310.426 254.167 315.504 260.426 315.504Z" fill="white"/>
<path d="M255.768 303.877C257.855 303.877 259.546 302.184 259.546 300.097C259.546 298.009 257.855 296.316 255.768 296.316C253.682 296.316 251.99 298.009 251.99 300.097C251.99 302.184 253.682 303.877 255.768 303.877Z" fill="#3F3D56"/>
<path d="M267.536 327.792C267.714 328.769 267.698 329.772 267.489 330.742C267.279 331.713 266.881 332.633 266.316 333.449C265.751 334.266 265.032 334.963 264.198 335.501C263.364 336.039 262.432 336.408 261.456 336.585C260.48 336.763 259.478 336.747 258.508 336.537C257.538 336.328 256.619 335.929 255.803 335.364C254.987 334.799 254.29 334.079 253.752 333.244C253.215 332.41 252.846 331.478 252.669 330.501L252.666 330.486C251.923 326.377 255.098 324.923 259.204 324.179C263.31 323.435 266.793 323.683 267.536 327.792Z" fill="white"/>
<path d="M334.24 55.1341C342.916 51.5479 349.038 46.4311 347.913 43.7053C346.788 40.9796 338.842 41.6772 330.165 45.2634C321.489 48.8496 315.367 53.9665 316.492 56.6922C317.617 59.4179 325.563 58.7203 334.24 55.1341Z" fill="#2F2E41"/>
<path d="M417.563 78.613C419.822 76.7198 416.769 69.3461 410.742 62.1434C404.716 54.9406 397.998 50.6364 395.739 52.5296C393.479 54.4228 396.533 61.7965 402.559 68.9992C408.586 76.202 415.303 80.5062 417.563 78.613Z" fill="#2F2E41"/>
<path d="M370.493 93.6833C389.268 93.6833 404.488 78.4526 404.488 59.6645C404.488 40.8765 389.268 25.6458 370.493 25.6458C351.718 25.6458 336.497 40.8765 336.497 59.6645C336.497 78.4526 351.718 93.6833 370.493 93.6833Z" fill="#2F2E41"/>
<path d="M384.882 86.3628H374.554V104.879H384.882V86.3628Z" fill="#2F2E41"/>
<path d="M364.226 86.3628H353.899V104.879H364.226V86.3628Z" fill="#2F2E41"/>
<path d="M376.275 108.324C381.028 108.324 384.882 106.878 384.882 105.095C384.882 103.311 381.028 101.865 376.275 101.865C371.522 101.865 367.669 103.311 367.669 105.095C367.669 106.878 371.522 108.324 376.275 108.324Z" fill="#2F2E41"/>
<path d="M355.62 107.894C360.373 107.894 364.226 106.448 364.226 104.664C364.226 102.88 360.373 101.434 355.62 101.434C350.867 101.434 347.013 102.88 347.013 104.664C347.013 106.448 350.867 107.894 355.62 107.894Z" fill="#2F2E41"/>
<path d="M359.818 16.9019C362.854 4.66879 376.253 -2.53016 389.747 0.822642C403.24 4.17544 411.718 16.8104 408.682 29.0435C405.647 41.2767 395.576 41.3162 382.082 37.9633C368.589 34.6105 356.783 29.1351 359.818 16.9019Z" fill="#FF6D63"/>
<path d="M365.41 63.8281C371.67 63.8281 376.744 58.7502 376.744 52.4863C376.744 46.2223 371.67 41.1444 365.41 41.1444C359.151 41.1444 354.076 46.2223 354.076 52.4863C354.076 58.7502 359.151 63.8281 365.41 63.8281Z" fill="white"/>
<path d="M360.752 57.7308C362.839 57.7308 364.53 56.0381 364.53 53.9502C364.53 51.8622 362.839 50.1696 360.752 50.1696C358.666 50.1696 356.974 51.8622 356.974 53.9502C356.974 56.0381 358.666 57.7308 360.752 57.7308Z" fill="#3F3D56"/>
<path d="M372.52 76.1164C372.879 78.0893 372.44 80.1241 371.3 81.7732C370.16 83.4222 368.411 84.5504 366.44 84.9096C364.468 85.2687 362.435 84.8294 360.787 83.6883C359.139 82.5472 358.012 80.7978 357.653 78.8248L357.65 78.8102C356.907 74.701 360.081 73.247 364.188 72.5031C368.294 71.7592 371.777 72.0073 372.52 76.1164Z" fill="white"/>
<path d="M79.6335 345.359C98.4086 345.359 113.629 330.128 113.629 311.34C113.629 292.552 98.4086 277.322 79.6335 277.322C60.8584 277.322 45.6382 292.552 45.6382 311.34C45.6382 330.128 60.8584 345.359 79.6335 345.359Z" fill="#2F2E41"/>
<path d="M74.4698 338.039H64.1421V356.555H74.4698V338.039Z" fill="#2F2E41"/>
<path d="M95.125 338.039H84.7974V356.555H95.125V338.039Z" fill="#2F2E41"/>
<path d="M72.7483 360C77.5015 360 81.3547 358.554 81.3547 356.77C81.3547 354.987 77.5015 353.541 72.7483 353.541C67.9951 353.541 64.1418 354.987 64.1418 356.77C64.1418 358.554 67.9951 360 72.7483 360Z" fill="#2F2E41"/>
<path d="M93.4038 359.569C98.157 359.569 102.01 358.123 102.01 356.34C102.01 354.556 98.157 353.11 93.4038 353.11C88.6506 353.11 84.7974 354.556 84.7974 356.34C84.7974 358.123 88.6506 359.569 93.4038 359.569Z" fill="#2F2E41"/>
<path d="M46.6569 279.704C43.9119 267.402 52.6865 254.972 66.2554 251.94C79.8244 248.908 93.0494 256.423 95.7943 268.724C98.5393 281.026 89.5467 285.563 75.9778 288.595C62.4088 291.627 49.4018 292.006 46.6569 279.704Z" fill="#FF6D63"/>
<path d="M116.267 296.475C123.629 289.102 127.722 281.25 125.409 278.937C123.096 276.624 115.253 280.726 107.891 288.099C100.528 295.472 96.4351 303.324 98.7482 305.637C101.061 307.95 108.905 303.848 116.267 296.475Z" fill="#2F2E41"/>
<path d="M52.2321 308.007C54.5451 305.694 50.4519 297.842 43.0896 290.469C35.7273 283.096 27.8839 278.994 25.5709 281.307C23.2579 283.619 27.3511 291.471 34.7134 298.844C42.0757 306.218 49.9191 310.32 52.2321 308.007Z" fill="#2F2E41"/>
<path d="M78.2031 318.146C84.6199 318.146 89.8218 312.94 89.8218 306.519C89.8218 300.098 84.6199 294.893 78.2031 294.893C71.7863 294.893 66.5845 300.098 66.5845 306.519C66.5845 312.94 71.7863 318.146 78.2031 318.146Z" fill="white"/>
<path d="M78.2032 310.395C80.3422 310.395 82.0761 308.66 82.0761 306.519C82.0761 304.379 80.3422 302.644 78.2032 302.644C76.0643 302.644 74.3303 304.379 74.3303 306.519C74.3303 308.66 76.0643 310.395 78.2032 310.395Z" fill="#3F3D56"/>
<path d="M87.4264 328.022C87.6041 328.999 87.5878 330.002 87.3784 330.972C87.169 331.943 86.7706 332.863 86.206 333.679C85.6413 334.496 84.9215 335.193 84.0876 335.731C83.2537 336.269 82.322 336.638 81.3458 336.815C80.3696 336.993 79.3679 336.977 78.398 336.767C77.428 336.558 76.5088 336.159 75.6929 335.594C74.8769 335.029 74.1802 334.309 73.6424 333.474C73.1046 332.64 72.7364 331.708 72.5586 330.731L72.556 330.716C71.8126 326.607 74.9875 325.153 79.0938 324.409C83.2002 323.665 86.683 323.913 87.4264 328.022Z" fill="white"/>
</g>
<defs>
<clipPath id="clip0_40_1968">
<rect width="500" height="360" fill="white"/>
</clipPath>
</defs>
</svg>
